<svg preserveAspectRatio="xMidYMid meet" data-bbox="20 20.394 159.999 159.212" viewBox="20 20.394 159.999 159.212" height="200" width="200" xmlns="http://www.w3.org/2000/svg" data-type="color" role="presentation" aria-hidden="true" aria-labelledby="svgcid--ekx8srnf7spn"><defs><style>#comp-kqanqpc7 svg [data-color="1"] {fill: #FFFFFF;}
#comp-kqanqpc7 svg [data-color="2"] {fill: #252E39;}
#comp-kqanqpc7 svg [data-color="3"] {fill: #EA6F66;}</style></defs><title id="svgcid--ekx8srnf7spn"></title>
    <g>
        <path fill="#FFFFFF" d="M175.978 76.238v99.347H24.021V76.238h151.957z" data-color="1"></path>
        <path d="M175.979 179.606H24.021A4.021 4.021 0 0120 175.585V76.238a4.021 4.021 0 014.021-4.021h151.957a4.021 4.021 0 014.021 4.021v99.346a4.02 4.02 0 01-4.02 4.022zm-147.936-8.043h143.914V80.259H28.043v91.304z" fill="#2E3A48" data-color="2"></path>
        <path fill="#FFFFFF" d="M175.979 76.238l-75.566-51.822-75.566 51.822 75.566 51.821 75.566-51.821z" data-color="1"></path>
        <path d="M100.412 132.081a4.02 4.02 0 01-2.275-.705L22.571 79.555a4.023 4.023 0 010-6.632L98.138 21.1a4.02 4.02 0 014.55 0l75.566 51.822a4.023 4.023 0 010 6.632l-75.566 51.822a4.022 4.022 0 01-2.276.705zM31.956 76.238l68.456 46.945 68.456-46.945-68.456-46.945-68.456 46.945z" fill="#2E3A48" data-color="2"></path>
        <path d="M24.021 179.606a4.024 4.024 0 01-2.895-6.813l57.98-60.15a4.025 4.025 0 015.687-.104 4.024 4.024 0 01.104 5.687l-57.98 60.15a4.014 4.014 0 01-2.896 1.23z" fill="#2E3A48" data-color="2"></path>
        <path d="M175.979 179.606a4.008 4.008 0 01-2.895-1.23l-57.98-60.15a4.024 4.024 0 01.104-5.687 4.024 4.024 0 015.687.104l57.98 60.15a4.024 4.024 0 01-2.896 6.813z" fill="#2E3A48" data-color="2"></path>
        <path fill="#EA6F66" d="M152.56 41.298V92.29l-52.157 35.75-52.962-36.313V41.298H152.56z" data-color="3"></path>
        <path d="M100.403 132.062a4.016 4.016 0 01-2.274-.705L45.167 95.043a4.02 4.02 0 01-1.748-3.316V41.298a4.021 4.021 0 014.021-4.021h105.12a4.021 4.021 0 014.021 4.021V92.29a4.022 4.022 0 01-1.748 3.317l-52.157 35.75a4.013 4.013 0 01-2.273.705zM51.462 89.608l48.94 33.557 48.136-32.993V45.32H51.462v44.288z" fill="#2E3A48" data-color="2"></path>
        <path d="M112.892 97.324c-5.79 4.155-13.564 5.515-21.097 2.579-8.271-3.224-13.897-11.427-13.898-20.304-.002-14.41 12.92-24.513 26.321-21.912 11.112 2.157 18.65 12.292 17.826 23.309-.191 2.551-1.697 4.983-4.131 5.768a6.246 6.246 0 01-2.964.219c-2.398-.407-4.376-2.205-5.07-4.606" fill="#EA6F66" data-color="3"></path>
        <path d="M100.023 104.477a25.66 25.66 0 01-9.324-1.764C81.239 99.026 74.882 89.738 74.88 79.6c-.001-7.658 3.332-14.798 9.142-19.59a25.037 25.037 0 0120.769-5.284c12.498 2.426 21.208 13.817 20.259 26.495-.297 3.991-2.737 7.294-6.214 8.414a9.335 9.335 0 01-4.394.323c-3.522-.597-6.451-3.244-7.463-6.743a3.016 3.016 0 015.795-1.675c.372 1.288 1.424 2.258 2.676 2.47a3.208 3.208 0 001.532-.116c1.1-.353 1.942-1.638 2.053-3.123.72-9.628-5.899-18.28-15.393-20.123a19.031 19.031 0 00-15.782 4.016c-4.416 3.641-6.948 9.085-6.948 14.935.002 7.672 4.815 14.702 11.978 17.494 6.149 2.398 12.968 1.567 18.244-2.22a3.017 3.017 0 013.517 4.901 25.035 25.035 0 01-14.628 4.703z" fill="#2E3A48" data-color="2"></path>
        <path fill="#EA6F66" d="M110.131 79.376c0 5.591-4.533 10.124-10.124 10.124s-10.124-4.533-10.124-10.124 4.533-10.124 10.124-10.124 10.124 4.533 10.124 10.124z" data-color="3"></path>
        <path d="M100.012 92.518c-.828 0-1.666-.079-2.508-.242a13.056 13.056 0 01-8.388-5.55 13.056 13.056 0 01-2.008-9.855c1.38-7.112 8.286-11.778 15.403-10.395a13.054 13.054 0 018.388 5.549 13.058 13.058 0 012.008 9.855c-1.218 6.271-6.734 10.638-12.895 10.638zm-.007-20.251c-3.334 0-6.318 2.362-6.976 5.754-.748 3.848 1.775 7.586 5.624 8.333 3.846.748 7.585-1.775 8.331-5.623v-.001a7.063 7.063 0 00-1.086-5.331 7.053 7.053 0 00-4.537-3.001 7.14 7.14 0 00-1.356-.131z" fill="#2E3A48" data-color="2"></path>
    </g>
</svg>