<svg preserveAspectRatio="xMidYMid meet" data-bbox="45.758 20 108.483 160" viewBox="45.758 20 108.483 160" height="200" width="200" xmlns="http://www.w3.org/2000/svg" data-type="color" role="presentation" aria-hidden="true" aria-labelledby="svgcid--9tsjknazjvb5"><defs><style>#comp-k37c6cby1 svg [data-color="1"] {fill: #B5473F;}
#comp-k37c6cby1 svg [data-color="2"] {fill: #252E39;}
#comp-k37c6cby1 svg [data-color="3"] {fill: #FFFFFF;}</style></defs><title id="svgcid--9tsjknazjvb5"></title>
    <g>
        <path fill="#EA6F66" d="M120.842 45.022c0 11.51-9.331 20.842-20.842 20.842-11.51 0-20.842-9.331-20.842-20.842 0-11.51 9.331-20.842 20.842-20.842 11.51 0 20.842 9.331 20.842 20.842z" data-color="1"></path>
        <path d="M100 70.045c-13.797 0-25.022-11.225-25.022-25.022S86.203 20 100 20s25.022 11.225 25.022 25.022S113.797 70.045 100 70.045zm0-41.684c-9.187 0-16.661 7.474-16.661 16.661S90.813 61.684 100 61.684s16.661-7.474 16.661-16.661S109.187 28.361 100 28.361z" fill="#2E3A48" data-color="2"></path>
        <path d="M121 128.829H75c-4.404 0-25.062 21.767-25.062 26.171v20.819h100.123V150c.001-4.404-24.657-21.171-29.061-21.171z" fill="#FFFFFF" data-color="3"></path>
        <path d="M150.061 180H49.939a4.181 4.181 0 01-4.181-4.181v-13.656c0-20.686 16.829-37.514 37.514-37.514h33.455c20.686 0 37.514 16.829 37.514 37.514v13.656a4.18 4.18 0 01-4.18 4.181zm-95.942-8.361h91.761v-9.476c0-16.075-13.078-29.153-29.153-29.153H83.272c-16.075 0-29.153 13.078-29.153 29.153v9.476z" fill="#2E3A48" data-color="2"></path>
        <path d="M111.034 141.044H88.966a3.469 3.469 0 01-3.469-3.469v-35.892h29.007v35.892a3.47 3.47 0 01-3.47 3.469z" fill="#FFFFFF" data-color="3"></path>
        <path d="M100 145.224c-10.302 0-18.684-8.382-18.684-18.684v-24.858a4.181 4.181 0 014.181-4.181h29.007a4.181 4.181 0 014.181 4.181v24.858c-.001 10.303-8.383 18.684-18.685 18.684zm-10.323-39.361v20.677c0 5.692 4.631 10.323 10.323 10.323s10.323-4.631 10.323-10.323v-20.677H89.677z" fill="#2E3A48" data-color="2"></path>
        <path d="M129.417 74.388v17.558c0 16.235-13.182 29.417-29.417 29.417s-29.416-13.182-29.416-29.417V74.388c0-13.996 9.822-25.701 22.953-28.602a27.075 27.075 0 016.464-.763c4.733 0 9.161 1.12 13.131 3.155 2.85 1.374 5.446 3.257 7.685 5.446 5.291 5.292 8.6 12.621 8.6 20.764z" fill="#FFFFFF" data-color="3"></path>
        <path d="M100 125.544c-18.525 0-33.597-15.072-33.597-33.598V74.388c0-15.58 11.032-29.326 26.231-32.684 2.345-.573 4.784-.861 7.366-.861 5.299 0 10.36 1.217 15.038 3.616 3.083 1.485 6.041 3.578 8.699 6.175 6.37 6.371 9.86 14.794 9.86 23.755v17.558c0 18.525-15.072 33.597-33.597 33.597zm0-76.341c-1.906 0-3.696.21-5.473.644-11.488 2.539-19.763 12.851-19.763 24.541v17.558c0 13.916 11.321 25.237 25.236 25.237s25.236-11.321 25.236-25.237V74.388c0-6.727-2.62-13.051-7.376-17.808-1.974-1.928-4.187-3.499-6.544-4.635-3.58-1.836-7.356-2.742-11.316-2.742z" fill="#2E3A48" data-color="2"></path>
        <path d="M129.417 74.388v3.665a44.648 44.648 0 01-25.752-13.996c-4.733-5.14-8.245-11.349-10.128-18.271a27.075 27.075 0 016.464-.763c4.733 0 9.161 1.12 13.131 3.155 2.85 1.374 5.446 3.257 7.685 5.446 5.291 5.292 8.6 12.621 8.6 20.764z" fill="#EA6F66" data-color="1"></path>
        <path d="M129.416 82.233c-.228 0-.456-.018-.684-.056-10.818-1.794-20.819-7.231-28.162-15.309-5.223-5.672-9.056-12.589-11.068-19.985a4.18 4.18 0 013.043-5.158c7.43-1.812 15.534-.835 22.493 2.733 3.083 1.485 6.041 3.578 8.699 6.175 6.37 6.371 9.86 14.794 9.86 23.755v3.665a4.182 4.182 0 01-4.181 4.18zM99.107 49.218a40.27 40.27 0 007.632 12.007c4.969 5.466 11.389 9.468 18.447 11.568-.381-6.127-2.949-11.834-7.327-16.214-1.974-1.928-4.187-3.499-6.544-4.635a24.67 24.67 0 00-12.208-2.726z" fill="#2E3A48" data-color="2"></path>
        <path d="M113.131 48.178c-2.036 5.954-5.242 11.349-9.466 15.879a44.6 44.6 0 01-33.081 14.607v-4.275c0-13.996 9.822-25.701 22.953-28.602a27.075 27.075 0 016.464-.763 28.544 28.544 0 0113.13 3.154z" fill="#EA6F66" data-color="1"></path>
        <path d="M70.584 82.844a4.181 4.181 0 01-4.181-4.181v-4.276c0-15.58 11.032-29.326 26.231-32.684 2.345-.573 4.784-.861 7.366-.861 5.299 0 10.36 1.217 15.038 3.616a4.182 4.182 0 012.048 5.074c-2.245 6.562-5.732 12.408-10.366 17.377-9.192 10.112-22.377 15.935-36.136 15.935zM100 49.203c-1.906 0-3.696.21-5.473.644-11.449 2.53-19.706 12.78-19.763 24.419 9.867-1.024 19.099-5.643 25.806-13.022a39.588 39.588 0 007.178-10.806A24.51 24.51 0 00100 49.203z" fill="#2E3A48" data-color="2"></path>
    </g>
</svg>